<?xml version="1.0" encoding="UTF-8"?>
<svg xmlns="http://www.w3.org/2000/svg" width="750" height="480" viewBox="0 0 750 480">
<defs>
  <linearGradient id="bg" x1="0" y1="0" x2="0" y2="1">
    <stop offset="0%" stop-color="#0d1b3e"/>
    <stop offset="100%" stop-color="#1a3a6b"/>
  </linearGradient>
  <filter id="shadow"><feDropShadow dx="2" dy="2" stdDeviation="3" flood-opacity="0.3"/></filter>
  <marker id="arrow" markerWidth="10" markerHeight="7" refX="9" refY="3.5" orient="auto">
    <polygon points="0 0, 10 3.5, 0 7" fill="#42a5f5"/>
  </marker>
  <marker id="arroww" markerWidth="10" markerHeight="7" refX="9" refY="3.5" orient="auto">
    <polygon points="0 0, 10 3.5, 0 7" fill="#ffffff"/>
  </marker>
</defs>
<rect width="750" height="480" fill="url(#bg)"/>
<text x="375" y="30" text-anchor="middle" font-size="18" font-weight="bold" fill="#ffffff">Flutter 分层架构详解</text>
<rect x="50" y="55" width="650" height="35" rx="8" fill="#2e7d32" filter="url(#shadow)"/>
<text x="375" y="77" text-anchor="middle" font-size="15" fill="#ffffff" font-family="sans-serif"><tspan x="375" dy="0">Framework（Dart）</tspan></text><rect x="55" y="100" width="130" height="50" rx="8" fill="#388e3c" filter="url(#shadow)"/>
<text x="120" y="123" text-anchor="middle" font-size="11" fill="#ffffff" font-family="sans-serif"><tspan x="120" dy="0">Material</tspan><tspan x="120" dy="11">Cupertino</tspan></text><rect x="190" y="100" width="120" height="50" rx="8" fill="#388e3c" filter="url(#shadow)"/>
<text x="250" y="128" text-anchor="middle" font-size="11" fill="#ffffff" font-family="sans-serif"><tspan x="250" dy="0">Widgets</tspan></text><rect x="315" y="100" width="120" height="50" rx="8" fill="#388e3c" filter="url(#shadow)"/>
<text x="375" y="128" text-anchor="middle" font-size="11" fill="#ffffff" font-family="sans-serif"><tspan x="375" dy="0">Rendering</tspan></text><rect x="440" y="100" width="150" height="50" rx="8" fill="#388e3c" filter="url(#shadow)"/>
<text x="515" y="117" text-anchor="middle" font-size="11" fill="#ffffff" font-family="sans-serif"><tspan x="515" dy="0">Animation</tspan><tspan x="515" dy="11">Painting</tspan><tspan x="515" dy="11">Gestures</tspan></text><rect x="595" y="100" width="120" height="50" rx="8" fill="#388e3c" filter="url(#shadow)"/>
<text x="655" y="128" text-anchor="middle" font-size="11" fill="#ffffff" font-family="sans-serif"><tspan x="655" dy="0">Foundation</tspan></text><rect x="50" y="170" width="650" height="35" rx="8" fill="#1565c0" filter="url(#shadow)"/>
<text x="375" y="192" text-anchor="middle" font-size="15" fill="#ffffff" font-family="sans-serif"><tspan x="375" dy="0">Engine（C/C++）</tspan></text><rect x="55" y="215" width="210" height="45" rx="8" fill="#1976d2" filter="url(#shadow)"/>
<text x="160" y="235" text-anchor="middle" font-size="11" fill="#ffffff" font-family="sans-serif"><tspan x="160" dy="0">Service Protocol</tspan><tspan x="160" dy="11">Composition</tspan></text><rect x="270" y="215" width="140" height="45" rx="8" fill="#1976d2" filter="url(#shadow)"/>
<text x="340" y="235" text-anchor="middle" font-size="11" fill="#ffffff" font-family="sans-serif"><tspan x="340" dy="0">Platform</tspan><tspan x="340" dy="11">Channels</tspan></text><rect x="415" y="215" width="160" height="45" rx="8" fill="#1976d2" filter="url(#shadow)"/>
<text x="495" y="235" text-anchor="middle" font-size="11" fill="#ffffff" font-family="sans-serif"><tspan x="495" dy="0">Dart Isolate</tspan><tspan x="495" dy="11">Rendering</tspan></text><rect x="55" y="268" width="210" height="45" rx="8" fill="#1976d2" filter="url(#shadow)"/>
<text x="160" y="288" text-anchor="middle" font-size="11" fill="#ffffff" font-family="sans-serif"><tspan x="160" dy="0">Dart Runtime</tspan><tspan x="160" dy="11">Frame Scheduling</tspan></text><rect x="270" y="268" width="140" height="45" rx="8" fill="#1976d2" filter="url(#shadow)"/>
<text x="340" y="288" text-anchor="middle" font-size="11" fill="#ffffff" font-family="sans-serif"><tspan x="340" dy="0">Asset</tspan><tspan x="340" dy="11">Resolution</tspan></text><rect x="415" y="268" width="160" height="45" rx="8" fill="#1976d2" filter="url(#shadow)"/>
<text x="495" y="288" text-anchor="middle" font-size="11" fill="#ffffff" font-family="sans-serif"><tspan x="495" dy="0">Frame Pipelining</tspan><tspan x="495" dy="11">Text Layout</tspan></text><rect x="50" y="335" width="650" height="35" rx="8" fill="#ff9800" filter="url(#shadow)"/>
<text x="375" y="357" text-anchor="middle" font-size="15" fill="#ffffff" font-family="sans-serif"><tspan x="375" dy="0">Embedder（平台特定）</tspan></text><rect x="55" y="380" width="200" height="45" rx="8" fill="#e65100" filter="url(#shadow)"/>
<text x="155" y="400" text-anchor="middle" font-size="11" fill="#ffffff" font-family="sans-serif"><tspan x="155" dy="0">Render Surface</tspan><tspan x="155" dy="11">Setup</tspan></text><rect x="260" y="380" width="160" height="45" rx="8" fill="#e65100" filter="url(#shadow)"/>
<text x="340" y="400" text-anchor="middle" font-size="11" fill="#ffffff" font-family="sans-serif"><tspan x="340" dy="0">Native</tspan><tspan x="340" dy="11">Plugins</tspan></text><rect x="425" y="380" width="140" height="45" rx="8" fill="#e65100" filter="url(#shadow)"/>
<text x="495" y="400" text-anchor="middle" font-size="11" fill="#ffffff" font-family="sans-serif"><tspan x="495" dy="0">App</tspan><tspan x="495" dy="11">Packaging</tspan></text><rect x="570" y="380" width="190" height="45" rx="8" fill="#e65100" filter="url(#shadow)"/>
<text x="665" y="400" text-anchor="middle" font-size="11" fill="#ffffff" font-family="sans-serif"><tspan x="665" dy="0">Thread Setup</tspan><tspan x="665" dy="11">Event Loop Interop</tspan></text><text x="375" y="460" text-anchor="middle" font-size="13" fill="#90caf9" font-family="sans-serif">核心理念：Embedder 隔离平台代码，使 Framework 和 Engine 保持干净，便于上游贡献</text>
</svg>